<?xml version="1.0" standalone="no"?>
<!DOCTYPE svg PUBLIC "-//W3C//DTD SVG 20010904//EN"
 "http://www.w3.org/TR/2001/REC-SVG-20010904/DTD/svg10.dtd">
<svg version="1.0" xmlns="http://www.w3.org/2000/svg"
 width="240.000000pt" height="240.000000pt" viewBox="0 0 240.000000 240.000000"
 preserveAspectRatio="xMidYMid meet">
<metadata>
Created by potrace 1.14, written by Peter Selinger 2001-2017
</metadata>
<g transform="translate(0.000000,240.000000) scale(0.100000,-0.100000)"
fill="#000000" stroke="none">
<path d="M1348 2364 c-2 -1 -37 -5 -78 -8 -251 -18 -550 -140 -742 -303 -110
-94 -249 -255 -303 -353 -147 -267 -208 -537 -180 -800 10 -95 55 -245 97
-324 43 -81 54 -97 113 -175 16 -21 129 -134 151 -151 139 -109 329 -187 494
-205 73 -8 1449 -9 1457 -1 8 8 8 954 -1 963 -3 4 -199 7 -434 7 -406 1 -429
2 -457 20 -39 25 -48 35 -63 69 -15 35 -16 88 0 121 l11 26 38 -35 c71 -64
181 -65 248 -1 14 13 40 26 57 29 39 6 89 32 106 55 9 13 25 18 53 17 40 -2
93 14 117 35 43 36 65 60 78 86 14 26 21 29 65 30 167 2 246 190 133 315 -21
24 -23 35 -22 120 2 97 -9 137 -46 176 -43 47 -89 61 -200 62 -61 1 -69 4
-125 46 -116 87 -286 156 -415 170 -90 9 -149 13 -152 9z"/>
</g>
</svg>
